<svg width="18" height="19" viewBox="0 0 18 19" fill="none" xmlns="http://www.w3.org/2000/svg">
<path fill-rule="evenodd" clip-rule="evenodd" d="M12.8852 5.20225C13.1049 5.42192 13.1049 5.77808 12.8852 5.99775L5.46025 13.4227C5.24058 13.6424 4.88442 13.6424 4.66475 13.4227C4.44508 13.2031 4.44508 12.8469 4.66475 12.6273L12.0898 5.20225C12.3094 4.98258 12.6656 4.98258 12.8852 5.20225Z" fill="#242628"/>
<path fill-rule="evenodd" clip-rule="evenodd" d="M6.71251 5.55853C6.7147 5.24788 6.96831 4.99782 7.27897 5.00001L12.4915 5.03676C12.799 5.03893 13.0478 5.28768 13.05 5.5952L13.0875 10.8085C13.0897 11.1191 12.8397 11.3728 12.529 11.375C12.2184 11.3772 11.9647 11.1272 11.9625 10.8165L11.929 6.15783L7.27103 6.12499C6.96038 6.1228 6.71032 5.86919 6.71251 5.55853Z" fill="#242628"/>
</svg>